<?xml version="1.0" encoding="UTF-8" standalone="no" ?>
<!DOCTYPE svg PUBLIC "-//W3C//DTD SVG 1.1//EN" "http://www.w3.org/Graphics/SVG/1.1/DTD/svg11.dtd">
<svg xmlns="http://www.w3.org/2000/svg" xmlns:xlink="http://www.w3.org/1999/xlink" version="1.1" width="100" height="100" viewBox="0 0 100 100" xml:space="preserve">
<g transform="matrix(1 0 0 1 50 50)" id="2d736372-64db-40d9-8291-bbd472a1883f"  >
<rect style="stroke: none; stroke-width: 1; stroke-dasharray: none; stroke-linecap: butt; stroke-dashoffset: 0; stroke-linejoin: miter; stroke-miterlimit: 4; fill: rgb(255,255,255); fill-rule: nonzero; opacity: 1; visibility: hidden;" vector-effect="non-scaling-stroke"  x="-50" y="-50" rx="0" ry="0" width="100" height="100" />
</g>
<g transform="matrix(0.09 0 0 0.09 134.58 134.45)" style="" id="text5503-9"  >
		<text xml:space="preserve" font-family="StoneSerITCStd Medium" font-size="0.58478075" font-style="normal" font-weight="normal" style="stroke: none; stroke-width: 1; stroke-dasharray: none; stroke-linecap: butt; stroke-dashoffset: 0; stroke-linejoin: miter; stroke-miterlimit: 4; fill: rgb(0,0,0); fill-rule: nonzero; opacity: 0.01000001; white-space: pre;" ><tspan x="-2.49" y="0.18" >Created by Falzar FZ</tspan></text>
</g>
<g transform="matrix(2.96 0 0 2.96 50 50)" id="path3007"  >
<path style="stroke: none; stroke-width: 1; stroke-dasharray: none; stroke-linecap: butt; stroke-dashoffset: 0; stroke-linejoin: miter; stroke-miterlimit: 4; fill: currentColor; fill-rule: nonzero; opacity: 1;" vector-effect="non-scaling-stroke"  transform=" translate(-420.39, -523.44)" d="M 405.39495 508.15894 C 405.36635 508.17114 405.39477 508.21853999999996 405.39495 508.25264 C 405.39594999999997 508.47792 406.00157 511.43956 406.26995 512.5026399999999 C 407.06953 515.66977 407.87434 517.3631399999999 409.14495 518.5651399999999 C 411.3318 520.40617 413.55933 521.86417 415.89495 523.3776399999999 C 413.07610999999997 526.71525 411.58245 528.3463899999999 411.58245 528.3463899999999 C 411.58245 528.3463899999999 409.91459 526.8993099999999 408.76995 526.0026399999999 C 408.34201 525.7872799999999 407.81978 526.2113099999999 407.39495 526.6588899999999 C 406.96486 527.1120099999999 406.80124 527.48196 406.8012 527.9401399999999 C 407.23067 529.07998 408.42903 529.7749699999999 409.51995 530.7838899999999 C 408.09809 532.4799199999999 406.30262 534.0822499999999 404.95745 535.9713899999999 C 404.71109 536.88631 405.51889 538.2168399999999 406.58245 538.5963899999999 C 407.01869999999997 538.7520199999999 407.52294 538.75182 407.89495 538.5963899999999 C 409.97776 536.8491499999999 410.86916 535.54721 412.56847 533.9595999999999 C 413.66257 534.9376299999999 415.14913 536.28019 416.3012 536.8463899999999 C 417.03023 536.8463899999999 417.70018 536.43292 418.01995 535.7526399999999 C 418.38851 534.9685699999999 418.39443 534.9843599999999 416.45745 532.8463899999999 L 415.13426 531.4607 C 416.80286 529.63242 418.62512999999996 528.06139 420.37987 526.30665 C 421.97339999999997 527.94151 423.99716 529.98838 425.54681 531.66108 C 425.54881 531.6924799999999 424.63761 532.50622 423.95745 533.2526399999999 C 422.66419 534.6719099999999 422.46924 534.9676699999999 422.6137 535.4713899999999 C 422.72695 535.8662599999999 423.09599 536.3518399999999 423.45745 536.5963899999999 C 423.78316 536.81674 424.40395 536.9069999999999 424.76995 536.8151399999999 C 426.10275 535.98245 427.12862 534.9199799999999 428.28283 533.9595999999999 C 429.95688 535.4484499999999 431.16408 536.9775199999999 432.9887 538.5026399999999 C 433.61866 538.80157 434.45083999999997 538.56724 435.14495 537.9401399999999 C 435.80264999999997 537.3459499999999 435.95884 536.70759 435.83245 536.0338899999999 C 434.22768 533.7550399999999 433.57253 533.3050699999999 431.26995 530.8463899999999 C 432.19262 529.9370399999999 433.12408 528.9686599999999 433.8637 527.9401399999999 C 433.99305 527.29343 433.40297 526.41811 432.58245 526.0651399999999 C 431.92045 525.7803499999999 431.7233 525.89649 430.33245 527.1588899999999 L 429.14495 528.2213899999999 C 427.54993 526.54517 426.38107 525.2384199999999 424.76995 523.4713899999999 C 427.30528 521.4957599999999 430.74664 520.05891 432.6137 517.4713899999999 C 433.51099 516.1672299999999 434.37963 513.4793299999999 435.08245 509.87763999999993 C 435.41454 508.1758299999999 435.4074 508.13339999999994 435.14495 508.19013999999993 C 430.09868 509.28117999999995 427.17154 510.32469999999995 425.8012 511.56513999999993 C 423.91621 513.5198099999999 422.28035 515.67864 420.4262 517.7526399999999 C 418.15645 515.52258 416.54521 512.80787 414.0512 510.90888999999993 C 410.8359 509.39967999999993 408.62774 508.78268999999995 405.39495 508.15888999999993 z" stroke-linecap="round" />
</g>
</svg>