<svg width="100" height="100" viewBox="0 0 100 100" xml:space="preserve">
<rect x="0" y="0" width="100%" height="100%" fill="transparent"></rect>
<g transform="matrix(1 0 0 1 50 50)" id="7cdb8d22-fe32-47c2-9f3f-12dae9cd4aa2"  >
<rect style="stroke: none; stroke-width: 1; stroke-dasharray: none; stroke-linecap: butt; stroke-dashoffset: 0; stroke-linejoin: miter; stroke-miterlimit: 4; fill: rgb(255,255,255); fill-rule: nonzero; opacity: 1; visibility: hidden;" vector-effect="non-scaling-stroke"  x="-50" y="-50" rx="0" ry="0" width="100" height="100" />
</g>
<g transform="matrix(1.69 0 0 1.69 50 50)"  >
<path style="stroke: none; stroke-width: 1; stroke-dasharray: none; stroke-linecap: butt; stroke-dashoffset: 0; stroke-linejoin: miter; stroke-miterlimit: 4; fill: currentColor; fill-rule: nonzero; opacity: 1;" vector-effect="non-scaling-stroke"  transform=" translate(-372.36, -528.14)" d="M 344.15053 521.8301 L 363.76057000000003 518.26305 L 372.19776 501.32005000000004 L 381.66696 518.1913400000001 L 400.57802000000004 521.6866800000001 L 387.1265 534.3024000000001 L 389.4114 554.9436800000002 L 372.38754 545.0357400000001 L 355.36369 554.9556800000001 L 357.38922 534.3798300000002 z" stroke-linecap="round" />
</g>
<g transform="matrix(1.69 0 0 1.69 50 50)"  >
<path style="stroke: none; stroke-width: 1; stroke-dasharray: none; stroke-linecap: butt; stroke-dashoffset: 0; stroke-linejoin: miter; stroke-miterlimit: 4; fill: rgb(255,255,255); fill-rule: nonzero; opacity: 1;" vector-effect="non-scaling-stroke"  transform=" translate(-372.36, -528.14)" d="M 346.90473 522.44585 L 364.60044999999997 519.2270199999999 L 372.21401999999995 503.9379799999999 L 380.75883999999996 519.1623099999999 L 397.82381999999996 522.31644 L 385.68541999999997 533.70062 L 387.74728 552.32692 L 372.38527 543.3861899999999 L 357.02326999999997 552.3377499999999 L 358.85107999999997 533.7704999999999 z" stroke-linecap="round" />
</g>
<g transform="matrix(1.69 0 0 1.69 50 50)"  >
<path style="stroke: none; stroke-width: 1; stroke-dasharray: none; stroke-linecap: butt; stroke-dashoffset: 0; stroke-linejoin: miter; stroke-miterlimit: 4; fill: currentColor; fill-rule: nonzero; opacity: 1;" vector-effect="non-scaling-stroke"  transform=" translate(-372.36, -528.14)" d="M 352.48635 523.69374 L 366.30256 521.18059 L 372.24696 509.2434400000001 L 378.91845 521.13007 L 392.2422 523.5927 L 382.76497 532.48107 L 384.37479 547.0238400000001 L 372.38067 540.04322 L 360.38656000000003 547.03229 L 361.81364 532.53563 z" stroke-linecap="round" />
</g>
<g transform="matrix(1.69 0 0 1.69 50 50)"  >
<path style="stroke: none; stroke-width: 1; stroke-dasharray: none; stroke-linecap: butt; stroke-dashoffset: 0; stroke-linejoin: miter; stroke-miterlimit: 4; fill: rgb(255,255,255); fill-rule: nonzero; opacity: 1;" vector-effect="non-scaling-stroke"  transform=" translate(-372.36, -528.24)" d="M 355.60669 524.49226 L 367.2541 522.3736 L 372.26538 512.31029 L 377.88961 522.33102 L 389.12186 524.4071 L 381.13232000000005 531.9002 L 382.48943 544.1601300000001 L 372.37809000000004 538.2753000000001 L 362.26676000000003 544.1672500000001 L 363.46981000000005 531.9461900000001 z" stroke-linecap="round" />
</g>
<g transform="matrix(1 0 0 1 51 53.18)" style="" id="76c2287b-00ae-4894-9ce3-a2ada59d8f36"  >
		<text xml:space="preserve" font-family="Lato" font-size="35" font-style="normal" font-weight="400" style="pointer-events: none; stroke: none; stroke-width: 1; stroke-dasharray: none; stroke-linecap: butt; stroke-dashoffset: 0; stroke-linejoin: miter; stroke-miterlimit: 4; fill: currentColor; fill-rule: nonzero; opacity: 1; white-space: pre;" ><tspan x="-10.15" y="10.99" >2</tspan></text>
</g>
</svg>