<?xml version="1.0" encoding="UTF-8" standalone="no" ?>
<!DOCTYPE svg PUBLIC "-//W3C//DTD SVG 1.1//EN" "http://www.w3.org/Graphics/SVG/1.1/DTD/svg11.dtd">
<svg xmlns="http://www.w3.org/2000/svg" xmlns:xlink="http://www.w3.org/1999/xlink" version="1.1" width="100" height="100" viewBox="0 0 100 100" xml:space="preserve">
<g transform="matrix(1 0 0 1 50 50)" id="f81a67fe-de71-4e52-81e7-f7bb19114d0c"  >
<rect style="stroke: none; stroke-width: 1; stroke-dasharray: none; stroke-linecap: butt; stroke-dashoffset: 0; stroke-linejoin: miter; stroke-miterlimit: 4; fill: rgb(255,255,255); fill-rule: nonzero; opacity: 1; visibility: hidden;" vector-effect="non-scaling-stroke"  x="-50" y="-50" rx="0" ry="0" width="100" height="100" />
</g>
<g transform="matrix(1.96 0 0 1.96 50 50)" id="path2987"  >
<path style="stroke: none; stroke-width: 0; stroke-dasharray: none; stroke-linecap: butt; stroke-dashoffset: 0; stroke-linejoin: miter; stroke-miterlimit: 4; fill: currentColor; fill-rule: evenodd; opacity: 1;" vector-effect="non-scaling-stroke"  transform=" translate(-23.22, -23.22)" d="M 23.21875 0.1875 C 10.499609 0.1875 0.1875 10.499609 0.1875 23.21875 C 0.1875 35.937891 10.499609 46.25 23.21875 46.25 C 35.937891 46.25 46.25 35.937891 46.25 23.21875 C 46.25 10.499609 35.937891 0.1875 23.21875 0.1875 z M 22.875 1.9375 C 25.427575 1.92788 28.091916 2.2406188 30.15625 2.90625 C 23.454949 15.666443 23.25 15.940381 23.25 15.940381 C 23.25 15.940381 23.026835 15.653134 16.28125 2.9375 C 17.873818 2.3009477 20.322425 1.9471197 22.875 1.9375 z M 12.71875 4.375 C 17.514982 17.242786000000002 17.53125 17.34375 17.53125 17.34375 C 17.53125 17.34375 17.417878 17.31456 4.65625 12.1875 C 5.7523409999999995 9.6169676 9.534552 5.8902428 12.71875 4.375 z M 33.75 4.375 C 36.934198 5.8902428 40.685159 9.616967599999999 41.78125 12.1875 C 29.019624999999998 17.314564 28.9375 17.34375 28.9375 17.34375 C 28.9375 17.34375 28.95377 17.242786 33.75 4.375 z M 23.25 30.584031 C 23.25 30.584031 23.463323 30.80911 30.03125 43.5625 C 25.983280999999998 44.884373 19.560378999999998 44.826594 16.4375 43.5625 C 23.048123 30.816786 23.25 30.584031 23.25 30.584031 z M 17.46875 29.15625 C 17.46875 29.15625 17.46335 29.24754 12.71875 42.15625 C 10.116702 41.137232 6.26566 37.481421 4.65625 34.34375 C 17.375393000000003 29.166293 17.46875 29.15625 17.46875 29.15625 z M 28.96875 29.15625 C 28.96875 29.15625 29.06211 29.16629 41.78125 34.34375 C 40.171841 37.481421 36.352047999999996 41.137232 33.75 42.15625 C 29.005429 29.24754 28.96875 29.15625 28.96875 29.15625 z" stroke-linecap="round" />
</g>
</svg>